<svg xmlns="http://www.w3.org/2000/svg" viewBox="0 0 32 32">
  <path d="M 31.25 3.75 a 2.29 2.29 0 0 0 -1.01 -1.44 A 2.29 2.29 0 0 0 28.5 2 L 21 3.67 l -10 -2 L 2.5 3.56 A 2.29 2.29 0 0 0 0.7 5.8 v 21.95 a 2.28 2.28 0 0 0 1.06 1.94 A 2.29 2.29 0 0 0 3.5 30 L 11 28.33 l 10 2 l 8.49 -1.89 a 2.29 2.29 0 0 0 1.8 -2.24 V 4.25 a 2.3 2.3 0 0 0 -0.06 -0.5 Z M 12.5 25.98 l -1.51 -0.3 L 9.5 26 H 9.5 V 4.66 l 1.51 -0.33 l 1.49 0.3 v 21.34 Z m 10 1.36 l -1.51 0.33 l -1.49 -0.3 V 6.02 l 1.51 0.3 L 22.5 6 h 0.01 v 21.34 Z" fill="#ffff"/>
</svg>